nColumns=19
nRows=123
DataType=double
version=3
OpenSimVersion=4.1
endheader
time	ground_force_1_vx	ground_force_1_vy	ground_force_1_vz	ground_force_1_px	ground_force_1_py	ground_force_1_pz	ground_force_1_mx	ground_force_1_my	ground_force_1_mz	ground_force_2_vx	ground_force_2_vy	ground_force_2_vz	ground_force_2_px	ground_force_2_py	ground_force_2_pz	ground_force_2_mx	ground_force_2_my	ground_force_2_mz
1.9	0	0	0	0.000488176	0	-0.000269616	0	0	0	-155.969	1004.12	40.9214	1.04958	0	-0.363697	0	-3.00463	0
1.91	0	0	0	0.000488169	0	-0.000269624	0	0	0	-156.008	1298.96	19.6421	1.02397	0	-0.359916	0	-0.934265	0
1.92	0	0	0	0.000488161	0	-0.000269632	0	0	0	-178.934	1432.85	-9.41837	0.995728	0	-0.358923	-0	1.59805	-0
1.93	0	0	0	0.000488154	0	-0.00026964	0	0	0	-186.511	1508.2	-22.2397	0.961352	0	-0.357152	-0	3.3902	-0
1.94	0	0	0	0.000488147	0	-0.000269648	0	0	0	-160.502	1591.94	-17.286	0.921572	0	-0.356345	-0	3.73513	-0
1.95	0	0	0	0.00048814	0	-0.000269655	0	0	0	-110.64	1664.69	-6.61297	0.880858	0	-0.356985	-0	2.77445	-0
1.96	0	0	0	0.000488133	0	-0.000269663	0	0	0	-51.5965	1696.69	1.10054	0.841587	0	-0.357034	-0	1.30815	-0
1.97	0	0	0	0.000488126	0	-0.00026967	0	0	0	12.4101	1673.25	0.500729	0.802347	0	-0.35615	-0	0.293823	-0
1.98	0	0	0	0.000488119	0	-0.000269678	0	0	0	81.9412	1588.72	-9.7395	0.760928	0	-0.354821	-0	0.350546	-0
1.99	0	0	0	0.000488112	0	-0.000269685	0	0	0	156.938	1443.45	-24.6809	0.715427	0	-0.352981	-0	1.50652	-0
2	0	0	0	0.000488106	0	-0.000269692	0	0	0	221.667	1244.46	-37.9752	0.666605	0	-0.350935	-0	3.27045	-0
2.01	0	0	0	0.000488099	0	-0.000269699	0	0	0	253.916	1007.2	-46.1392	0.620296	0	-0.349087	-0	4.92371	-0
2.02	0	0	0	0.000488093	0	-0.000269706	0	0	0	245.231	750.067	-47.889	0.581525	0	-0.347612	-0	5.85005	-0
2.03	0	0	0	0.000488087	0	-0.000269713	0	0	0	201.73	498.483	-43.5367	0.550539	0	-0.346468	-0	5.75793	-0
2.04	0	0	0	0.00048808	0	-0.00026972	0	0	0	138.388	286.402	-35.1827	0.524354	0	-0.345817	-0	4.73243	-0
2.05	0	0	0	0.000488074	0	-0.000269726	0	0	0	75.8914	138.185	-24.8714	0.492707	0	-0.346801	-0	3.13556	-0
2.06	0	0	0	0.000488068	0	-0.000269733	0	0	0	31.6616	55.2731	-13.869	0.455722	0	-0.343914	-0	1.43051	-0
2.07	0	0	0	0.000488062	0	-0.000269739	0	0	0	8.3535	19.8741	-4.86046	0.536079	0	-0.303329	-0	0.005742	-0
2.08	0	0	0	0.000488056	0	-0.000269746	0	0	0	0	0	0	0.000487879	0	-0.000269885	0	0	0
2.09	0	0	0	0.000488051	0	-0.000269752	0	0	0	0	0	0	0.000487872	0	-0.000269892	0	0	0
2.1	0	0	0	0.000488045	0	-0.000269758	0	0	0	0	0	0	0.000487866	0	-0.000269898	0	0	0
2.11	0	0	0	0.000488039	0	-0.000269764	0	0	0	0	0	0	0.00048786	0	-0.000269905	0	0	0
2.12	0	0	0	0.000488034	0	-0.00026977	0	0	0	0	0	0	0.000487853	0	-0.000269911	0	0	0
2.13	0	0	0	0.000488029	0	-0.000269776	0	0	0	0	0	0	0.000487847	0	-0.000269918	0	0	0
2.14	0	0	0	0.000488023	0	-0.000269781	0	0	0	0	0	0	0.000487841	0	-0.000269924	0	0	0
2.15	0	0	0	0.000488018	0	-0.000269787	0	0	0	0	0	0	0.000487836	0	-0.00026993	0	0	0
2.16	-4.89486	13.063	-5.21976	1.20028	0	-0.278594	-0	3.2628	-0	0	0	0	0.00048783	0	-0.000269936	0	0	0
2.17	-18.9101	54.0001	-13.4045	1.1045	0	-0.320396	-0	5.15101	-0	0	0	0	0.000487825	0	-0.000269941	0	0	0
2.18	-59.6823	194.098	-23.3285	1.10568	0	-0.32822	-0	6.09693	-0	0	0	0	0.000487819	0	-0.000269947	0	0	0
2.19	-120.928	497.991	-26.7994	1.10294	0	-0.33387	-0	5.41692	-0	0	0	0	0.000487814	0	-0.000269953	0	0	0
2.2	-158.353	903.645	-12.1795	1.08732	0	-0.338285	-0	3.02009	-0	0	0	0	0.000487809	0	-0.000269958	0	0	0
2.21	-174.287	1226.82	17.6299	1.06346	0	-0.341203	0	-0.358972	0	0	0	0	0.000487804	0	-0.000269963	0	0	0
2.22	-204.753	1376.92	41.1685	1.0352	0	-0.343885	0	-3.43558	0	0	0	0	0.000487799	0	-0.000269969	0	0	0
2.23	-226.533	1450.69	46.3165	1.00171	0	-0.345591	0	-5.03852	0	0	0	0	0.000487794	0	-0.000269974	0	0	0
2.24	-214.067	1549.49	40.2497	0.964893	0	-0.343961	0	-4.67592	0	0	0	0	0.000487789	0	-0.000269978	0	0	0
2.25	-170.009	1657.91	30.0221	0.928123	0	-0.341654	0	-2.66594	0	0	0	0	0.000487785	0	-0.000269983	0	0	0
2.26	-110.814	1726.81	20.1235	0.892516	0	-0.340152	-0	0.113324	-0	0	0	0	0.00048778	0	-0.000269988	0	0	0
2.27	-51.9192	1739.28	15.3442	0.858243	0	-0.338093	-0	2.64495	-0	0	0	0	0.000487776	0	-0.000269992	0	0	0
2.28	4.14256	1693.74	14.7152	0.823918	0	-0.336373	-0	4.16244	-0	0	0	0	0.000487772	0	-0.000269997	0	0	0
2.29	57.1022	1593.99	17.0297	0.789046	0	-0.335954	-0	4.3656	-0	0	0	0	0.000487768	0	-0.000270001	0	0	0
2.3	103.296	1447.25	24.8851	0.755241	0	-0.335637	-0	3.45075	-0	0	0	0	0.000487764	0	-0.000270005	0	0	0
2.31	141.751	1251.19	36.0168	0.721649	0	-0.335256	-0	1.98922	-0	0	0	0	0.00048776	0	-0.000270009	0	0	0
2.32	170.195	1002.74	43.6091	0.683495	0	-0.336184	-0	0.674921	-0	0	0	0	0.000487757	0	-0.000270013	0	0	0
2.33	179.456	725.753	45.2634	0.637791	0	-0.337853	-0	0.036015	-0	0	0	0	0.000487753	0	-0.000270016	0	0	0
2.34	157.489	465.774	41.8764	0.589149	0	-0.338037	-0	0.252992	-0	0	0	0	0.00048775	0	-0.00027002	0	0	0
2.35	110.862	259.2	33.0883	0.545259	0	-0.33639	-0	1.13731	-0	0	0	0	0.000487746	0	-0.000270023	0	0	0
2.36	61.2718	120.543	20.6023	0.519001	0	-0.335357	-0	2.24096	-0	0	0	0	0.000487743	0	-0.000270027	0	0	0
2.37	23.8058	45.6095	10.2599	0.57356	0	-0.328333	-0	3.05844	-0	0	0	0	0.00048774	0	-0.00027003	0	0	0
2.38	5.29353	15.499	5.38788	0.883873	0	-0.262251	-0	3.2485	-0	0	0	0	0.000487738	0	-0.000270033	0	0	0
2.39	0	0	0	0.000487929	0	-0.000269884	0	0	0	0	0	0	0.000487735	0	-0.000270035	0	0	0
2.4	0	0	0	0.000487926	0	-0.000269886	0	0	0	0	0	0	0.000487732	0	-0.000270038	0	0	0
2.41	0	0	0	0.000487924	0	-0.000269888	0	0	0	0	0	0	0.00048773	0	-0.000270041	0	0	0
2.42	0	0	0	0.000487922	0	-0.000269891	0	0	0	0	0	0	0.000487728	0	-0.000270043	0	0	0
2.43	0	0	0	0.00048792	0	-0.000269893	0	0	0	0	0	0	0.000487725	0	-0.000270045	0	0	0
2.44	0	0	0	0.000487918	0	-0.000269895	0	0	0	0	0	0	0.000487723	0	-0.000270047	0	0	0
2.45	0	0	0	0.000487917	0	-0.000269896	0	0	0	0	0	0	0.000487722	0	-0.000270049	0	0	0
2.46	0	0	0	0.000487915	0	-0.000269898	0	0	0	0	0	0	0.00048772	0	-0.000270051	0	0	0
2.47	0	0	0	0.000487914	0	-0.0002699	0	0	0	0	0	0	0.000487718	0	-0.000270053	0	0	0
2.48	0	0	0	0.000487912	0	-0.000269901	0	0	0	0	0	0	0.000487717	0	-0.000270054	0	0	0
2.49	0	0	0	0.000487911	0	-0.000269902	0	0	0	0	0	0	0.000487715	0	-0.000270056	0	0	0
2.5	0	0	0	0.00048791	0	-0.000269903	0	0	0	-14.1705	32.4438	2.98669	1.13277	0	-0.359391	-0	1.77278	-0
2.51	0	0	0	0.000487909	0	-0.000269904	0	0	0	-46.7587	118.401	7.90251	1.07481	0	-0.385477	-0	1.00229	-0
2.52	0	0	0	0.000487909	0	-0.000269905	0	0	0	-108.355	329.811	20.7977	1.05947	0	-0.379339	-0	0.243597	-0
2.53	0	0	0	0.000487908	0	-0.000269906	0	0	0	-152.579	673.278	36.6314	1.04114	0	-0.368971	-0	0.10311	-0
2.54	0	0	0	0.000487907	0	-0.000269907	0	0	0	-147.369	1056.44	40.4005	1.01303	0	-0.361967	-0	0.973955	-0
2.55	0	0	0	0.000487907	0	-0.000269907	0	0	0	-152.694	1341.73	25.3551	0.981954	0	-0.359185	-0	2.67422	-0
2.56	0	0	0	0.000487907	0	-0.000269907	0	0	0	-173.75	1490.73	4.80868	0.948721	0	-0.358089	-0	4.43717	-0
2.57	0	0	0	0.000487906	0	-0.000269908	0	0	0	-168.461	1584.36	-3.56832	0.911357	0	-0.357311	-0	5.35747	-0
2.58	0	0	0	0.000487906	0	-0.000269908	0	0	0	-132.77	1671.88	3.48568	0.872416	0	-0.357093	-0	4.97207	-0
2.59	0	0	0	0.000487906	0	-0.000269908	0	0	0	-79.7273	1732.01	15.9238	0.834537	0	-0.35733	-0	3.53492	-0
2.6	0	0	0	0.000487907	0	-0.000269907	0	0	0	-18.5123	1738.65	22.7224	0.797236	0	-0.357452	-0	1.83157	-0
2.61	0	0	0	0.000487907	0	-0.000269907	0	0	0	46.7823	1685.01	19.5107	0.759196	0	-0.356621	-0	0.721983	-0
2.62	0	0	0	0.000487907	0	-0.000269907	0	0	0	116.631	1568.26	7.37325	0.718313	0	-0.354817	-0	0.713384	-0
2.63	0	0	0	0.000487908	0	-0.000269906	0	0	0	188.293	1384.07	-9.58758	0.672416	0	-0.352803	-0	1.76361	-0
2.64	0	0	0	0.000487909	0	-0.000269905	0	0	0	242.777	1141.35	-25.3436	0.624052	0	-0.350818	-0	3.36048	-0
2.65	0	0	0	0.000487909	0	-0.000269904	0	0	0	257.661	866.368	-35.3786	0.580172	0	-0.348626	-0	4.79435	-0
2.66	0	0	0	0.00048791	0	-0.000269903	0	0	0	227.076	591.4	-38.9356	0.544676	0	-0.346576	-0	5.46616	-0
2.67	0	0	0	0.000487911	0	-0.000269902	0	0	0	165.199	351.652	-36.9469	0.515604	0	-0.345347	-0	5.09439	-0
2.68	0	0	0	0.000487912	0	-0.000269901	0	0	0	96.3921	176.554	-30.0178	0.487806	0	-0.345814	-0	3.77427	-0
2.69	0	0	0	0.000487914	0	-0.0002699	0	0	0	42.8071	73.3448	-19.4472	0.476644	0	-0.344371	-0	1.90776	-0
2.7	0	0	0	0.000487915	0	-0.000269898	0	0	0	13.4109	26.0561	-8.76622	0.575537	0	-0.321172	-0	0.038672	-0
2.71	0	0	0	0.000487917	0	-0.000269896	0	0	0	0	0	0	0.000487722	0	-0.000270049	0	0	0
2.72	0	0	0	0.000487918	0	-0.000269895	0	0	0	0	0	0	0.000487723	0	-0.000270047	0	0	0
2.73	0	0	0	0.00048792	0	-0.000269893	0	0	0	0	0	0	0.000487725	0	-0.000270045	0	0	0
2.74	0	0	0	0.000487922	0	-0.000269891	0	0	0	0	0	0	0.000487728	0	-0.000270043	0	0	0
2.75	0	0	0	0.000487924	0	-0.000269888	0	0	0	0	0	0	0.00048773	0	-0.000270041	0	0	0
2.76	0	0	0	0.000487926	0	-0.000269886	0	0	0	0	0	0	0.000487732	0	-0.000270038	0	0	0
2.77	0	0	0	0.000487929	0	-0.000269884	0	0	0	0	0	0	0.000487735	0	-0.000270035	0	0	0
2.78	0	0	0	0.000487931	0	-0.000269881	0	0	0	0	0	0	0.000487738	0	-0.000270033	0	0	0
2.79	0	0	0	0.000487933	0	-0.000269878	0	0	0	0	0	0	0.00048774	0	-0.00027003	0	0	0
2.8	-11.7987	33.326	-9.40732	1.08955	0	-0.262869	-0	1.1407	-0	0	0	0	0.000487743	0	-0.000270027	0	0	0
2.81	-42.9763	132.238	-21.9824	1.09321	0	-0.270092	-0	1.77696	-0	0	0	0	0.000487746	0	-0.000270023	0	0	0
2.82	-98.6764	372.635	-37.4445	1.09072	0	-0.272762	-0	1.97885	-0	0	0	0	0.00048775	0	-0.00027002	0	0	0
2.83	-142.688	731.511	-47.2606	1.07605	0	-0.275877	-0	1.38586	-0	0	0	0	0.000487753	0	-0.000270016	0	0	0
2.84	-161.959	1052.48	-43.9816	1.05247	0	-0.278341	0	-0.006397	0	0	0	0	0.000487757	0	-0.000270013	0	0	0
2.85	-203.651	1223.61	-32.8379	1.02395	0	-0.279927	0	-1.7294	0	0	0	0	0.00048776	0	-0.000270009	0	0	0
2.86	-242.966	1308.48	-26.4163	0.988982	0	-0.281314	0	-3.05416	0	0	0	0	0.000487764	0	-0.000270005	0	0	0
2.87	-238.905	1409.07	-27.907	0.948347	0	-0.28186	0	-3.38867	0	0	0	0	0.000487768	0	-0.000270001	0	0	0
2.88	-196.718	1531.62	-32.146	0.90634	0	-0.280863	0	-2.56776	0	0	0	0	0.000487772	0	-0.000269997	0	0	0
2.89	-131.702	1622.55	-36.9666	0.863533	0	-0.279588	0	-0.895761	0	0	0	0	0.000487776	0	-0.000269992	0	0	0
2.9	-52.4876	1647.89	-40.9614	0.818265	0	-0.278875	-0	1.00743	-0	0	0	0	0.00048778	0	-0.000269988	0	0	0
2.91	33.5641	1613.15	-39.4398	0.771312	0	-0.278264	-0	2.47148	-0	0	0	0	0.000487785	0	-0.000269983	0	0	0
2.92	119.051	1530.05	-30.7606	0.725066	0	-0.277755	-0	3.05166	-0	0	0	0	0.000487789	0	-0.000269978	0	0	0
2.93	194.668	1397.06	-17.9989	0.6806	0	-0.277987	-0	2.68658	-0	0	0	0	0.000487794	0	-0.000269974	0	0	0
2.94	249.952	1214.23	-3.71239	0.638452	0	-0.278617	-0	1.67597	-0	0	0	0	0.000487799	0	-0.000269969	0	0	0
2.95	275.309	987.83	9.83225	0.597797	0	-0.279065	-0	0.520887	-0	0	0	0	0.000487804	0	-0.000269963	0	0	0
2.96	266.647	734.089	19.359	0.556489	0	-0.279567	0	-0.296078	0	0	0	0	0.000487809	0	-0.000269958	0	0	0
2.97	223.758	486.013	23.3919	0.516798	0	-0.279825	0	-0.504741	0	0	0	0	0.000487814	0	-0.000269953	0	0	0
2.98	157.437	280.683	22.6261	0.486837	0	-0.278136	0	-0.133514	0	0	0	0	0.000487819	0	-0.000269947	0	0	0
2.99	89.705	137.796	17.6911	0.476332	0	-0.272869	-0	0.538606	-0	0	0	0	0.000487825	0	-0.000269941	0	0	0
3	38.5364	54.9404	10.2762	0.509157	0	-0.263925	-0	1.12859	-0	0	0	0	0.00048783	0	-0.000269936	0	0	0
3.01	12.0679	17.7727	4.418	0.682481	0	-0.242107	-0	1.33679	-0	0	0	0	0.000487836	0	-0.00026993	0	0	0
3.02	0	0	0	0.000488023	0	-0.000269781	0	0	0	0	0	0	0.000487841	0	-0.000269924	0	0	0
3.03	0	0	0	0.000488029	0	-0.000269776	0	0	0	0	0	0	0.000487847	0	-0.000269918	0	0	0
3.04	0	0	0	0.000488034	0	-0.00026977	0	0	0	0	0	0	0.000487853	0	-0.000269911	0	0	0
3.05	0	0	0	0.000488039	0	-0.000269764	0	0	0	0	0	0	0.00048786	0	-0.000269905	0	0	0
3.06	0	0	0	0.000488045	0	-0.000269758	0	0	0	0	0	0	0.000487866	0	-0.000269898	0	0	0
3.07	0	0	0	0.000488051	0	-0.000269752	0	0	0	0	0	0	0.000487872	0	-0.000269892	0	0	0
3.08	0	0	0	0.000488056	0	-0.000269746	0	0	0	0	0	0	0.000487879	0	-0.000269885	0	0	0
3.09	0	0	0	0.000488062	0	-0.000269739	0	0	0	-6.14545	12.9153	0.991257	0.861198	0	-0.317215	-0	1.59814	-0
3.1	0	0	0	0.000488068	0	-0.000269733	0	0	0	-25.4494	52.8668	4.92044	1.03091	0	-0.37369	-0	0.856995	-0
3.11	0	0	0	0.000488074	0	-0.000269726	0	0	0	-72.0236	182.448	15.6516	1.06865	0	-0.384902	0	-0.255637	0
3.12	0	0	0	0.00048808	0	-0.00026972	0	0	0	-130.584	458.673	33.8188	1.06136	0	-0.377159	0	-1.11078	0
